<?xml version="1.0" encoding="UTF-8"?>
<svg width="744px" height="450px" viewBox="0 0 744 450" version="1.1" xmlns="http://www.w3.org/2000/svg" xmlns:xlink="http://www.w3.org/1999/xlink">
    <!-- Generator: Sketch 53.2 (72643) - https://sketchapp.com -->
    <title>page-4_image</title>
    <desc>Created with Sketch.</desc>
    <defs>
        <rect id="path-1" x="0" y="0" width="744" height="450"></rect>
    </defs>
    <g id="ILLUSTRATIONS" stroke="none" stroke-width="1" fill="none" fill-rule="evenodd">
        <g id="page-4" transform="translate(-505.000000, -852.000000)">
            <g id="page-4_image" transform="translate(505.000000, 852.000000)">
                <mask id="mask-2" fill="white">
                    <use xlink:href="#path-1"></use>
                </mask>
                <use id="Mask" fill="#FFFFFF" xlink:href="#path-1"></use>
                <g id="Group-12" mask="url(#mask-2)">
                    <g transform="translate(51.000000, 35.000000)">
                        <g id="Group-8" transform="translate(331.306533, 248.241206)">
                            <path d="M0.219495,3.96912791 C0.219495,1.76049439 2.87675721,-0.0340203567 6.07467451,0.000489542158 L175.345729,1.4614086 C178.555149,1.4614086 181.154895,3.31343984 181.097378,5.53357666 L180.832803,75.8877572 C180.832803,78.0963907 178.17554,79.8909055 174.977623,79.8563956 L5.75258212,78.4069798 C2.55466482,78.4069798 -0.0565841915,76.5434453 0.000932306639,74.3233085 L0.1964884,13.033728" id="Path" stroke="#06D2B5" stroke-linecap="round" stroke-dasharray="8"></path>
                            <rect id="Rectangle" fill="#FFFFFF" fill-rule="nonzero" x="15.921499" y="32.9344364" width="180.072652" height="78.9011322" rx="5.65"></rect>
                            <path d="M15.8754858,47.279051 L15.1852878,104.933589 C15.1339564,108.395642 17.8893155,111.248672 21.3510564,111.31792 L145.966301,111.686026 L158.148296,111.824065 L189.839886,111.824065 C193.303396,111.767324 196.072235,108.926567 196.040165,105.462741 L196.776376,39.8249129 C196.827773,36.3609016 194.074177,33.5045596 190.610607,33.4290783 L22.1332808,32.9114298 C18.6652561,32.9619155 15.8894856,35.8045101 15.921499,39.2727545" id="Path" stroke="#A9B5CC" stroke-linecap="round" stroke-linejoin="round"></path>
                            <path d="M32.5897802,60.2202631 L32.5897802,60.2202631 C32.1641581,59.679608 32.4172307,57.4594712 32.428734,56.7692732 C32.428734,55.7914928 32.5092571,54.8137123 32.5207604,53.8474351 C32.5207604,52.3520062 32.5207604,50.8565772 32.5207604,49.3611483 C32.5782769,47.3480708 33.6135738,47.4516005 35.155016,47.4516005 L47.9811951,47.4516005 C53.8708845,47.4516005 59.8065871,47.6586599 65.6847732,47.3250642 C66.4136741,47.2278425 67.1552605,47.3067346 67.8473935,47.5551302 C69.9524974,48.5674206 69.4118423,56.9648293 69.0897499,58.8973837 C68.9287037,59.8176476 67.8588968,60.0477136 66.9961494,60.13974 C65.63876,60.2202631 64.2698673,60.2777796 62.9009747,60.3237928 C55.9989949,60.5768654 49.1545316,60.5538588 42.2870617,60.5193489 L37.1335835,60.5193489 C36.2133195,60.4158192 33.2684748,60.8989578 32.5897802,60.2202631 Z" id="Path" fill="#0AC5F6" fill-rule="nonzero"></path>
                            <path d="M75.7616637,79.9024088 C75.5798968,79.7392735 75.4482447,79.5278322 75.3820548,79.2927339 C75.2556701,78.2459 75.2556701,77.1876637 75.3820548,76.1408298 L75.3820548,72.8048729 C75.3820548,71.2519275 75.2325119,69.5724457 75.3820548,68.0195003 C75.6006175,66.0869459 77.3951322,66.6851175 78.8330447,66.6851175 L83.5954107,66.6851175 C98.6072167,66.627601 113.607519,66.3055086 128.619325,66.0869459 C132.334891,66.0869459 135.946927,66.0869459 139.662493,66.2134822 C139.81375,66.1973889 139.965559,66.2384184 140.088115,66.3285152 C140.17273,66.4384362 140.224569,66.5700263 140.237658,66.7081241 C140.612443,68.9917474 140.839147,71.2972186 140.916353,73.6101039 C140.916353,75.6922011 141.480014,80.0749583 138.53517,79.9599253 C118.841521,79.143191 99.1363685,80.4430639 79.4657262,80.3970507 C78.4419325,80.408554 76.6129078,80.6501233 75.7616637,79.9024088 Z" id="Path" fill="#06D2B5" fill-rule="nonzero"></path>
                            <path d="M131.357111,98.7793235 C131.211928,98.6032475 131.11307,98.3936682 131.069528,98.1696486 C130.983348,97.1207812 130.983348,96.0666119 131.069528,95.0177445 L131.069528,91.7508074 C131.069528,90.1863586 130.954495,88.5068769 131.069528,86.9539315 C131.230574,85.0213771 132.564957,85.6195487 133.623261,85.6195487 L137.154774,85.6195487 C148.312974,85.5505289 159.459672,85.2284365 170.606369,84.9983705 C173.367161,84.9983705 176.058933,84.9983705 178.819725,85.1134035 C178.938473,85.0966928 179.057053,85.1450031 179.130314,85.2399398 C179.195797,85.3566098 179.235053,85.4861549 179.245347,85.6195487 C179.525027,87.9105393 179.690113,90.2140685 179.739989,92.5215285 C179.739989,94.5921224 180.154108,98.9863829 177.979984,98.8598466 C163.336284,98.0661189 148.692583,99.3659918 134.07189,99.3429852 C133.358685,99.2854687 131.978289,99.5270379 131.357111,98.7793235 Z" id="Path" fill="#FDB102" fill-rule="nonzero"></path>
                            <path d="M71.3789065,54.3765869 L85.3439123,54.3765869 C85.3439123,54.3765869 85.3439123,56.8267897 85.3439123,61.0485007" id="Path" stroke="#A9B5CC" stroke-linecap="round"></path>
                            <path d="M82.7901797,59.5415684 C83.146782,60.1512433 85.4589453,63.1881144 85.4589453,63.1881144 L88.058691,59.4150321" id="Path" stroke="#A9B5CC" stroke-linecap="round" stroke-linejoin="round"></path>
                            <path d="M143.274529,71.7235627 L157.205025,71.7235627 C157.205025,71.7235627 157.205025,74.1852689 157.205025,78.3954765" id="Path" stroke="#A9B5CC" stroke-linecap="round"></path>
                            <path d="M154.685802,76.9000476 C155.030901,77.5097225 157.343065,80.5465936 157.343065,80.5465936 C157.343065,80.5465936 159.057056,78.0848874 159.94281,76.7735113" id="Path" stroke="#A9B5CC" stroke-linecap="round" stroke-linejoin="round"></path>
                        </g>
                        <g id="Group-6" transform="translate(448.743719, 27.688442)">
                            <path d="M0.0471089021,103.388757 L0.0472236135,5.61070972 C0.0287992625,2.71005353 2.23191985,0.277128981 5.12017875,0.00860279932 C5.23876946,-0.00286759977 5.35819033,-0.00286759977 5.47678104,0.00860279932 L154.89314,0.00860279932 C156.368802,0.0327877416 157.774208,0.643090183 158.799294,1.70486325 C159.82438,2.76663631 160.384906,4.19262611 160.357207,5.66822622 L160.357207,16.2052487" id="Path" stroke="#0AC5F6" stroke-linecap="round"></path>
                            <path d="M160.391717,18.6669548 L160.184658,106.092032 C160.242072,109.030716 157.996305,111.503583 155.065689,111.728649 L154.72059,111.728649 L5.45377444,111.728649 C3.97912977,111.704492 2.57487375,111.093816 1.5516126,110.031697 C0.528351461,108.969578 -0.0295858317,107.543546 0.00121041498,106.069025" id="Path" stroke="#0AC5F6" stroke-linecap="round"></path>
                            <path d="M46.2214683,25.2813521 C46.3401209,31.2445446 41.8112006,36.2766783 35.8684987,36.7846517 L35.1207842,36.7846517 C29.1708332,36.4604919 24.4533678,31.6463398 24.2499722,25.6910374 C24.0465766,19.735735 28.4245903,14.6109387 34.3385598,13.8815822 C34.6031357,13.8815822 34.8677116,13.8815822 35.1322875,13.8815822 C41.3413343,13.9699162 46.3046383,19.072234 46.2214683,25.2813521 L46.2214683,25.2813521 Z" id="Path" stroke="#1D1F24" stroke-linecap="round"></path>
                            <path d="M46.2329716,63.6333531 C46.3151949,69.6319942 41.7030014,74.652927 35.7189558,75.0791362 L35.1783007,75.0791362 C29.2439795,74.6920274 24.5829827,69.8454752 24.4277165,63.9005687 C24.2724502,57.9556622 28.6741052,52.872416 34.5801291,52.1760666 L35.1783007,52.1760666 C41.3883927,52.3019542 46.3292225,57.422731 46.2329716,63.6333531 Z" id="Path" stroke="#1D1F24" stroke-linecap="round"></path>
                            <polygon id="Path" fill="#A9B5CC" fill-rule="nonzero" points="129.068232 72.0537684 112.192892 72.0422651 112.215898 54.5802562 129.079736 54.5802562"></polygon>
                            <polygon id="Path" fill="#A9B5CC" fill-rule="nonzero" points="145.920566 72.0537684 129.068232 72.0537684 129.079736 54.5802562 145.955076 54.5917595"></polygon>
                            <polygon id="Path" fill="#A9B5CC" fill-rule="nonzero" points="78.4652172 72.0307618 61.6128832 72.0307618 61.6243865 54.5687529 78.4882238 54.5687529"></polygon>
                            <polygon id="Path" fill="#A9B5CC" fill-rule="nonzero" points="95.3290545 72.0422651 78.4652172 72.0307618 78.4882238 54.5687529 95.3520611 54.5802562"></polygon>
                            <polygon id="Path" fill="#A9B5CC" fill-rule="nonzero" points="112.192892 72.0422651 95.3290545 72.0422651 95.3290545 63.3112607 112.192892 63.3112607"></polygon>
                            <polygon id="Path" stroke="#FFFFFF" stroke-linecap="round" stroke-linejoin="round" points="78.4652172 72.0307618 61.6128832 72.0307618 61.6243865 54.5687529 78.4882238 54.5687529"></polygon>
                            <polygon id="Path" stroke="#FFFFFF" stroke-linecap="round" stroke-linejoin="round" points="95.3290545 72.0422651 78.4652172 72.0307618 78.4882238 54.5687529 95.3520611 54.5802562"></polygon>
                            <polygon id="Path" stroke="#FFFFFF" stroke-linecap="round" stroke-linejoin="round" points="112.192892 72.0422651 95.3290545 72.0422651 95.3520611 54.5802562 112.215898 54.5802562"></polygon>
                            <polygon id="Path" stroke="#FFFFFF" stroke-linecap="round" stroke-linejoin="round" points="129.068232 72.0537684 112.192892 72.0422651 112.215898 54.5802562 129.079736 54.5802562"></polygon>
                            <polygon id="Path" stroke="#FFFFFF" stroke-linecap="round" stroke-linejoin="round" points="145.920566 72.0537684 129.068232 72.0537684 129.079736 54.5802562 145.955076 54.5917595"></polygon>
                            <polygon id="Path" stroke="#FFFFFF" fill="#A9B5CC" fill-rule="nonzero" stroke-linecap="round" stroke-linejoin="round" points="145.909063 89.5272805 112.169885 89.5157772 112.181388 80.7732695 145.920566 80.7962761"></polygon>
                            <polygon id="Path" stroke="#FFFFFF" fill="#0AC5F6" fill-rule="nonzero" stroke-linecap="round" stroke-linejoin="round" points="145.89756 98.2467816 112.158382 98.2352783 112.169885 89.5157772 145.909063 89.5272805"></polygon>
                            <polygon id="Path" stroke="#FFFFFF" fill="#FDB102" fill-rule="nonzero" stroke-linecap="round" stroke-linejoin="round" points="95.3060479 89.5042739 61.5898766 89.4812673 61.6013799 80.7617662 95.3175512 80.7732695"></polygon>
                            <polygon id="Path" stroke="#FFFFFF" fill="#7974FD" fill-rule="nonzero" stroke-linecap="round" stroke-linejoin="round" points="112.158382 98.2352783 61.5898766 98.2122717 61.5898766 89.4812673 112.169885 89.5157772"></polygon>
                            <polygon id="Path" stroke="#FFFFFF" fill="#06D2B5" fill-rule="nonzero" stroke-linecap="round" stroke-linejoin="round" points="145.909063 89.5272805 112.169885 89.5157772 112.181388 80.7732695 145.920566 80.7962761"></polygon>
                            <path d="M38.4567411,57.7436636 C39.5150446,61.4937393 36.8117692,67.8895739 33.6483618,64.6456434 C31.9529445,62.6677955 31.4883093,59.9153851 32.4405154,57.4905911 C33.1652233,55.6615664 35.8109822,54.4422167 37.4444507,55.914639 C37.9515452,56.4136764 38.303156,57.0489733 38.4567411,57.7436636 Z" id="Path" stroke="#FDB102" stroke-linecap="round" stroke-linejoin="round"></path>
                            <polygon id="Path" fill="#0AC5F6" fill-rule="nonzero" points="129.102742 33.5982377 112.227402 33.5982377 112.250408 16.1247256 129.125749 16.1247256"></polygon>
                            <polygon id="Path" fill="#0AC5F6" fill-rule="nonzero" points="145.978083 33.5982377 129.102742 33.5982377 129.114245 24.85573 145.989586 24.85573"></polygon>
                            <polygon id="Path" fill="#0AC5F6" fill-rule="nonzero" points="78.4997271 33.5867344 61.6243865 33.5867344 61.6358898 24.8442267 78.4997271 24.85573"></polygon>
                            <polygon id="Path" fill="#0AC5F6" fill-rule="nonzero" points="95.3635644 33.5982377 78.4997271 33.5867344 78.4997271 24.85573 95.3750677 24.85573"></polygon>
                            <polygon id="Path" fill="#0AC5F6" fill-rule="nonzero" points="112.227402 33.5982377 95.3635644 33.5982377 95.3750677 24.85573 112.250408 24.8672333"></polygon>
                            <polygon id="Path" stroke="#FFFFFF" stroke-linecap="round" stroke-linejoin="round" points="78.4997271 33.5867344 61.6243865 33.5867344 61.6473931 16.1247256 78.5112304 16.1132223"></polygon>
                            <polygon id="Path" stroke="#FFFFFF" stroke-linecap="round" stroke-linejoin="round" points="95.3635644 33.5982377 78.4997271 33.5867344 78.5112304 16.1132223 95.386571 16.1132223"></polygon>
                            <polygon id="Path" stroke="#FFFFFF" stroke-linecap="round" stroke-linejoin="round" points="112.227402 33.5982377 95.3635644 33.5982377 95.386571 16.1132223 112.250408 16.1247256"></polygon>
                            <polygon id="Path" stroke="#FFFFFF" stroke-linecap="round" stroke-linejoin="round" points="129.102742 33.5982377 112.227402 33.5982377 112.250408 16.1247256 129.125749 16.1247256"></polygon>
                            <polygon id="Path" stroke="#FFFFFF" stroke-linecap="round" stroke-linejoin="round" points="145.978083 33.5982377 129.102742 33.5982377 129.125749 16.1247256 146.001089 16.1247256"></polygon>
                            <path d="M10.043591,63.0466848 C10.618756,63.8174059 11.7460793,65.1517886 12.3442509,65.934013 C12.5052971,66.1410724 12.7123565,66.3711384 12.9654291,66.3481318 C13.1503076,66.3082692 13.3140752,66.2018203 13.4255611,66.049046 L16.1518431,63.0811947" id="Path" stroke="#A9B5CC" stroke-linecap="round"></path>
                            <path d="M12.2522245,28.502276 C12.999939,27.9041044 14.2998119,26.6157348 15.036023,26.0290666 C15.2430824,25.8680204 15.4731484,25.6494577 15.4501418,25.3733785 C15.4083279,25.1893184 15.3022902,25.0261834 15.151056,24.9132465 L12.2522245,22.1179447" id="Path" stroke="#A9B5CC" stroke-linecap="round"></path>
                            <path d="M12.9079126,43.4565655 L148.209723,43.4795721" id="Path" stroke="#E8ECF2" stroke-linecap="round"></path>
                            <path d="M42.563419,71.3520671 C42.1626728,70.2311152 41.3359638,69.3134682 40.2627591,68.7983346 C39.2003344,68.3269468 38.0543871,68.0727264 36.8922923,68.0506201 C34.3270565,67.8665673 30.8300534,68.1541498 28.8399826,70.040691" id="Path" stroke="#FDB102" stroke-linecap="round" stroke-linejoin="round"></path>
                            <path d="M37.5364771,25.2813521 C35.6959492,28.3182232 32.3254824,23.6938967 32.0263966,21.4967665 C31.7273108,19.2996363 32.9811705,16.0672091 35.5694129,16.676884 C38.1576553,17.2865588 38.83635,22.6585998 37.7435365,24.8902399 L37.5364771,25.2813521 Z" id="Path" stroke="#0AC5F6" stroke-linecap="round" stroke-linejoin="round"></path>
                            <path d="M27.6091295,32.4018946 C29.428051,30.0727146 32.2148521,28.7065623 35.1700896,28.6953427 C38.1253271,28.6841232 40.9224209,30.0290761 42.7589751,32.3443781" id="Path" stroke="#0AC5F6" stroke-linecap="round" stroke-linejoin="round"></path>
                        </g>
                        <g id="Group-7" transform="translate(559.497487, 197.638191)">
                            <path d="M0.115032996,6.57988739 L2.27373675e-13,75.0015136 C0.00633502672,76.5725875 1.28173167,77.8428414 2.85281831,77.8428286 L60.2312769,77.7623055 L65.8448871,77.7623055 L79.970939,77.6817824 C80.7264999,77.6817886 81.4509483,77.3808581 81.9841301,76.8455176 C82.517312,76.3101771 82.815313,75.5845188 82.812254,74.8289641 L82.9387903,2.85281831 C82.9387903,1.27725026 81.6615401,9.9475983e-14 80.085972,9.9475983e-14 L3.0138645,0.126536296 C1.44279064,0.132871323 0.172536722,1.40826797 0.172549494,2.9793546" id="Path" stroke="#A9B5CC" fill="#FFFFFF" fill-rule="nonzero" stroke-linecap="round"></path>
                            <path d="M42.769268,35.1080705 C42.6539393,35.3975781 42.7060273,35.7269649 42.905058,35.9667609 C43.1040887,36.206557 43.4182444,36.3184276 43.7240419,36.2584004 C46.966861,35.8309342 50.2314419,35.5889712 53.5018466,35.5336926 C56.1361022,35.5336926 65.3847551,34.3833626 66.3970455,35.6947388 C68.2030635,38.006902 64.7520736,45.7141127 63.6017437,47.8997397 C57.6881923,59.2384194 43.9624891,64.0039549 32.2947652,58.7694573 C20.6270412,53.5349596 15.0602553,40.1142237 19.5974742,28.1580792 C24.1346932,16.2019347 37.2037346,9.85328032 49.4066719,13.6774233 C49.372162,17.0018769 43.7700551,31.634074 42.769268,35.1080705 Z" id="Path" fill="#0AC5F6" fill-rule="nonzero"></path>
                            <path d="M47.4971242,33.2215293 C54.9167524,31.6685839 60.3693165,30.6102803 67.8809711,29.5864867 C67.144374,23.8666583 63.5149819,18.9289465 58.2757159,16.5187383 C56.3086517,15.6329842 54.6751831,14.7012169 53.2372707,16.0701096 C52.098444,17.1399164 47.4971242,33.210026 47.4971242,33.2215293 Z" id="Path" stroke="#A9B5CC" stroke-linecap="round" stroke-linejoin="round"></path>
                        </g>
                        <g id="Group-9" transform="translate(78.419840, 262.562814)">
                            <path d="M111.177545,33.5654892 C111.787338,33.4285138 112.425113,33.4930986 112.995066,33.749542 C113.57764,34.0299596 113.84395,34.7133193 113.604741,35.3139907 C115.157686,34.9113752 116.998214,34.5547729 118.206061,35.6015732 C118.48922,35.7845298 118.630872,36.1226658 118.562663,36.4528174 C118.495526,36.6086233 118.383364,36.7408141 118.240571,36.8324263 C117.446788,37.3764823 116.529184,37.7126737 115.571805,37.8102067 C114.043564,37.9770392 112.503042,38.000147 110.970485,37.8792265 L105.000273,37.5686374 C103.281148,37.6009223 101.562086,37.5009321 99.8582977,37.2695516 C99.6862364,36.9168567 99.7309187,36.4968436 99.9733307,36.1882415 C100.212327,35.8896294 100.509831,35.6430137 100.847581,35.4635336 C102.19353,34.541787 103.724696,33.9253943 105.333868,33.6575156 C106.484198,33.5309793 106.967337,34.4512432 107.968124,34.4627465 C108.968911,34.4742498 110.176757,33.7035288 111.177545,33.5654892 Z" id="Path" stroke="#A9B5CC" stroke-linecap="round" stroke-linejoin="round"></path>
                            <path d="M4.14477387,0.954773869 L139.059803,0.954773869 C140.821592,0.954773869 142.249803,2.38298552 142.249803,4.14477387 L142.249803,112.682737 C142.249803,114.444526 140.821592,115.872737 139.059803,115.872737 L4.14477387,115.872737 C2.38298552,115.872737 0.954773869,114.444526 0.954773869,112.682737 L0.954773869,4.14477387 C0.954773869,2.38298552 2.38298552,0.954773869 4.14477387,0.954773869 Z" id="Rectangle" stroke="#7974FD" fill="#7974FD" fill-rule="nonzero" stroke-linecap="round" transform="translate(71.602289, 58.413756) rotate(0.310000) translate(-71.602289, -58.413756) "></path>
                            <path d="M127.270661,98.4210925 L15.3435553,97.8114176 C13.000308,97.9355133 10.9986696,96.1396989 10.8687718,93.796766 L11.4439367,12.7330135 C11.6038915,10.3924127 13.6231326,8.61979647 15.9647335,8.76437516 L127.891839,9.37405004 C130.230845,9.24981947 132.230647,11.0388455 132.366622,13.3771983 L131.848974,94.4524541 C131.76945,95.5863615 131.242053,96.6420379 130.383138,97.3865747 C129.524223,98.1311115 128.404375,98.5033239 127.270661,98.4210925 L127.270661,98.4210925 Z" id="Path" fill="#FFFFFF" fill-rule="nonzero"></path>
                            <path d="M27.4335232,81.3732024 C37.2228312,68.3859771 43.2735668,58.9417681 50.6356786,47.6800378 C51.956272,45.5190022 54.2034921,44.0916564 56.7209241,43.8149291 C60.0223711,43.6538829 62.4725739,46.7137606 64.3131018,49.4400427 C72.3654116,61.3459578 81.1079193,74.2641633 89.1602291,86.1700784" id="Path" stroke="#A9B5CC" stroke-linecap="round" stroke-linejoin="round"></path>
                            <path d="M65.1413394,50.5443594 L76.5065995,34.8078455 C77.240266,33.5257944 78.359206,32.5074785 79.7045168,31.8975107 C82.3042625,31.0462665 84.7889752,33.3354232 86.6064965,35.4290237 C95.1764548,45.4944109 106.162106,59.3443836 113.903827,70.0539556" id="Path" stroke="#A9B5CC" stroke-linecap="round" stroke-linejoin="round"></path>
                            <circle id="Oval" stroke="#A9B5CC" stroke-linecap="round" stroke-linejoin="round" cx="37.3608708" cy="36.9244527" r="3.48549979"></circle>
                            <path d="M63.7494402,21.2454553 C64.0680491,21.1477801 64.4086117,21.1477801 64.7272206,21.2454553 C64.8871887,21.2954244 65.0201789,21.4079112 65.095993,21.5573733 C65.1718071,21.7068354 65.1840119,21.8805901 65.1298361,22.0391829 C66.2801661,21.8436268 67.2924565,21.1879388 68.4197798,20.888853 C69.543993,20.5057913 70.7802878,20.9925216 71.3416179,22.0391829 C74.2563176,21.1274861 77.294807,20.6734589 80.3487015,20.6932969 C81.8873246,20.5989547 83.4215944,20.9376896 84.7774719,21.6710773 C85.3526369,22.0276796 85.9278019,22.7293809 85.5711996,23.3160492 C85.3753606,23.6078995 85.0815847,23.820071 84.742962,23.9142208 C83.0998915,24.4190108 81.3887878,24.6673343 79.6700069,24.6504319 C71.3186113,24.9725243 62.9633814,25.0338753 54.604317,24.8344847 C55.1219654,23.6266383 57.3190957,23.2815393 58.4234124,22.8329106 C60.1471345,22.1438947 61.929773,21.6125683 63.7494402,21.2454553 L63.7494402,21.2454553 Z" id="Path" stroke="#A9B5CC" stroke-linecap="round" stroke-linejoin="round"></path>
                            <path d="M9.5804022,70.6406239 C11.0183147,69.0186586 14.3657749,68.5125134 16.482382,69.1682015 C17.057547,69.3522543 21.6013503,72.872264 21.0031787,73.0908267 C23.3788669,72.2233342 26.0093596,73.435827 26.8928681,75.8056054 C27.3713705,77.2217776 27.6840476,78.688658 27.8246354,80.1768593 C27.9051585,80.625488 28.0892113,81.1546397 28.5263367,81.2121562 C28.9634621,81.2696727 29.1475149,80.9705869 29.4120908,80.7635275 C30.5635498,79.9840816 32.0396116,79.8661713 33.300206,80.4529385 C34.5586803,81.0788282 35.6418013,82.0077823 36.4521101,83.1562139 C37.291851,82.4200027 38.6377371,82.8801347 39.442968,83.6623591 C40.1421911,84.5400881 40.9116119,85.3595212 41.743628,86.1125619 C41.2259795,85.7559596 44.2513473,85.0657616 44.5159232,85.0887682 C45.7299141,85.2868436 46.8627736,85.8253508 47.7828603,86.6417137 C49.807441,88.1754869 51.7975118,89.7706112 53.7530728,91.4270863 C55.0950839,90.2140276 57.0679724,90.0092939 58.6304718,90.9209411 C60.1352669,91.8427091 61.4193512,93.083598 62.3920508,94.5559838 C63.2023375,93.470183 64.5521021,92.9291228 65.8880234,93.154605 C67.2239447,93.3800871 68.3213496,94.3341905 68.7303689,95.6257907" id="Path" stroke="#7974FD" stroke-linecap="round" stroke-linejoin="round"></path>
                            <path d="M43.4576196,59.3788935 C43.3770965,60.0000717 44.0327846,60.5292235 44.6079496,60.5292235 C45.2365641,60.4856778 45.8412584,60.2708523 46.3564511,59.9080453 L55.260005,54.7200572 C55.3465829,56.2051282 56.6031518,57.349321 58.0898167,57.2967963 C58.7270312,57.2097612 59.3429837,57.0070426 59.9073381,56.6986247 L65.6589879,53.9723427" id="Path" stroke="#A9B5CC" stroke-linecap="round" stroke-linejoin="round"></path>
                            <path d="M84.8004785,94.026832 L91.1733065,87.3664215 C91.9620101,86.3911208 92.9878648,85.6346025 94.1526611,85.1692913 C95.3688755,84.7227441 96.7250309,85.2761751 97.2815586,86.4461576 C99.2141129,83.2712469 103.424321,78.1752851 107.024853,82.7305918 C106.426682,80.5219583 108.048647,78.3708412 109.670612,76.7718826 C110.499993,75.8767817 111.491413,75.1468777 112.59245,74.6207655 C113.892323,74.0916138 115.445269,74.8393282 116.28501,74.1261237 C117.43534,73.1828531 117.918478,71.1122592 119.091815,70.0079424 C119.588089,69.4962251 120.217675,69.1336157 120.909336,68.9611421 C121.610895,68.800293 122.342108,69.060479 122.784374,69.6283335 C123.122523,68.5586337 123.860016,67.6604577 124.843465,67.1206142 C127.296563,65.4223057 129.991817,64.103764 132.838258,63.2094923" id="Path" stroke="#7974FD" stroke-linecap="round" stroke-linejoin="round"></path>
                            <path d="M34.105437,37.4536044 C33.0241269,37.4536044 31.5977177,37.936743 31.6782408,39.1675961 C27.3990133,38.1783123 22.9012232,37.2925582 18.7370287,38.7994905 C18.1459517,38.9579509 17.6464913,39.353357 17.3566328,39.892304 C17.0871271,40.7274329 17.4069366,41.6398305 18.1388571,42.1239441 C18.8408344,42.5103593 19.640753,42.6823418 20.4395171,42.618586 C27.6520859,42.7796322 35.1177274,43.6998961 42.2957864,42.5380629 C42.9859843,42.4230299 43.8027186,42.158454 43.9637648,41.3877329 C44.0114042,40.6448258 43.638016,39.9380551 42.9974876,39.5587083 C42.20513,38.9319752 41.3303549,38.4171739 40.3977419,38.0287694 C39.247412,37.5686374 38.7297635,38.2243255 37.7059698,38.2013189 C36.6821761,38.1783123 35.2902769,37.5111209 34.105437,37.4536044 Z" id="Path" stroke="#A9B5CC" fill="#FFFFFF" fill-rule="nonzero" stroke-linecap="round" stroke-linejoin="round"></path>
                            <path d="M70.5248836,43.0902213 C70.3857453,44.1422746 71.1013759,45.1167503 72.1468489,45.2988548 C73.2081681,45.3223047 74.2552722,45.0515706 75.1722167,44.5166304 C76.0911295,43.9900639 77.1097757,43.6609627 78.1630746,43.5503532 C79.8540596,43.5503532 81.2919721,44.7006832 82.6723681,45.7014703 C87.5267605,49.1524602 91.5069022,50.5443594 97.4080949,49.6816119" id="Path" stroke="#A9B5CC" stroke-linecap="round" stroke-linejoin="round"></path>
                            <circle id="Oval" fill="#FDB102" fill-rule="nonzero" cx="43.6301691" cy="58.9992846" r="2.68026881"></circle>
                            <circle id="Oval" fill="#FDB102" fill-rule="nonzero" cx="90.9662471" cy="22.2232357" r="2.68026881"></circle>
                            <circle id="Oval" fill="#FDB102" fill-rule="nonzero" cx="94.3712238" cy="85.2153045" r="2.68026881"></circle>
                            <circle id="Oval" fill="#FDB102" fill-rule="nonzero" cx="77.1507842" cy="107.186607" r="2.00157414"></circle>
                            <path d="M169.832869,97.0291932 L170.822153,4.3010949 C170.822153,2.85167915 170.097445,1.65533599 169.188685,1.64383269 L120.989859,1.1261842 C120.081098,1.1261842 119.321881,2.27651417 119.310377,3.74893652 L119.310377,7.05038351 L118.160047,113.467408 C118.160047,114.916824 118.884755,116.113167 119.793516,116.124671 L153.153085,116.481273 L156.408519,116.550293 L167.969335,116.630816 C168.889599,116.630816 169.648817,115.480486 169.66032,114.008063 L169.752346,101.883586" id="Path" stroke="#7974FD" fill="#FFFFFF" fill-rule="nonzero" stroke-linecap="round"></path>
                            <circle id="Oval" fill="#E8ECF2" fill-rule="nonzero" cx="129.789883" cy="21.2109454" r="4.57831325"></circle>
                            <path d="M140.179847,16.903352 L159.946847,16.903352 C161.708635,16.903352 163.136847,18.3315636 163.136847,20.093352 L163.136847,22.2142904 C163.136847,23.9760788 161.708635,25.4042904 159.946847,25.4042904 L140.179847,25.4042904 C138.418058,25.4042904 136.989847,23.9760788 136.989847,22.2142904 L136.989847,20.093352 C136.989847,18.3315636 138.418058,16.903352 140.179847,16.903352 Z" id="Rectangle" fill="#E8ECF2" fill-rule="nonzero" transform="translate(150.063347, 21.153821) rotate(-0.160000) translate(-150.063347, -21.153821) "></path>
                            <circle id="Oval" fill="#E8ECF2" fill-rule="nonzero" cx="129.8474" cy="37.0854988" r="4.57831325"></circle>
                            <path d="M140.247726,32.777634 L160.014726,32.777634 C161.776515,32.777634 163.204726,34.2058457 163.204726,35.967634 L163.204726,46.7160472 C163.204726,48.4778355 161.776515,49.9060472 160.014726,49.9060472 L140.247726,49.9060472 C138.485938,49.9060472 137.057726,48.4778355 137.057726,46.7160472 L137.057726,35.967634 C137.057726,34.2058457 138.485938,32.777634 140.247726,32.777634 Z" id="Rectangle" fill="#E8ECF2" fill-rule="nonzero" transform="translate(150.131226, 41.341841) rotate(-0.160000) translate(-150.131226, -41.341841) "></path>
                            <circle id="Oval" fill="#E8ECF2" fill-rule="nonzero" cx="129.91642" cy="62.5653075" r="4.57831325"></circle>
                            <path d="M140.323877,58.2571597 L160.090877,58.2571597 C161.852666,58.2571597 163.280877,59.6853713 163.280877,61.4471597 L163.280877,67.5367365 C163.280877,69.2985248 161.852666,70.7267365 160.090877,70.7267365 L140.323877,70.7267365 C138.562089,70.7267365 137.133877,69.2985248 137.133877,67.5367365 L137.133877,61.4471597 C137.133877,59.6853713 138.562089,58.2571597 140.323877,58.2571597 Z" id="Rectangle" fill="#E8ECF2" fill-rule="nonzero" transform="translate(150.207377, 64.491948) rotate(-0.160000) translate(-150.207377, -64.491948) "></path>
                            <circle id="Oval" fill="#E8ECF2" fill-rule="nonzero" cx="129.985439" cy="84.4100735" r="4.57831325"></circle>
                            <path d="M140.396382,80.1016478 L160.163382,80.1016478 C161.925171,80.1016478 163.353382,81.5298594 163.353382,83.2916478 L163.353382,89.3812246 C163.353382,91.1430129 161.925171,92.5712246 160.163382,92.5712246 L140.396382,92.5712246 C138.634594,92.5712246 137.206382,91.1430129 137.206382,89.3812246 L137.206382,83.2916478 C137.206382,81.5298594 138.634594,80.1016478 140.396382,80.1016478 Z" id="Rectangle" fill="#E8ECF2" fill-rule="nonzero" transform="translate(150.279882, 86.336436) rotate(-0.160000) translate(-150.279882, -86.336436) "></path>
                            <path d="M104.402101,107.083077 C105.577766,107.303285 106.779808,107.345938 107.968124,107.209613" id="Path" stroke="#FFFFFF" stroke-linecap="round"></path>
                            <path d="M106.277139,105.139019 L106.277139,109.073148" id="Path" stroke="#FFFFFF" stroke-linecap="round"></path>
                            <path d="M83.6846584,107.451183 L87.6187869,107.393666" id="Path" stroke="#FFFFFF" stroke-linecap="round"></path>
                            <path d="M91.460889,106.680462 L92.9678212,105.242549 C92.8088884,106.331978 92.7818524,107.436593 92.8872981,108.532493" id="Path" stroke="#FFFFFF" stroke-linecap="round" stroke-linejoin="round"></path>
                            <path d="M95.0844284,107.922818 C95.1994614,108.2104 95.4065207,108.52099 95.7286131,108.509486 C95.836275,108.504901 95.940242,108.468912 96.0276989,108.405957 C96.30578,108.145175 96.4709072,107.786023 96.4878309,107.405169 C96.5913606,106.772488 96.6488771,105.012483 95.4985471,105.10451 C94.3482172,105.196536 94.8083492,107.30164 95.0844284,107.922818 Z" id="Path" stroke="#FFFFFF" stroke-linecap="round" stroke-linejoin="round"></path>
                            <path d="M98.8690139,107.991838 C98.9840469,108.27942 99.1911063,108.590009 99.5131987,108.578506 C99.6208605,108.57392 99.7248276,108.537932 99.8122845,108.474976 C100.094547,108.217228 100.260518,107.856243 100.272416,107.474189 C100.375946,106.841508 100.433463,105.081503 99.2831327,105.173529 C98.1328028,105.265556 98.5584248,107.37066 98.8690139,107.991838 Z" id="Path" stroke="#FFFFFF" stroke-linecap="round" stroke-linejoin="round"></path>
                            <path d="M65.8427446,105.306523 L68.9107328,105.306523 C69.4961546,105.306523 69.9707328,105.781101 69.9707328,106.366523 L69.9707328,108.065618 C69.9707328,108.65104 69.4961546,109.125618 68.9107328,109.125618 L65.8427446,109.125618 C65.2573228,109.125618 64.7827446,108.65104 64.7827446,108.065618 L64.7827446,106.366523 C64.7827446,105.781101 65.2573228,105.306523 65.8427446,105.306523 Z" id="Rectangle" stroke="#FFFFFF" stroke-linecap="round" transform="translate(67.376739, 107.216071) rotate(0.710000) translate(-67.376739, -107.216071) "></path>
                            <polyline id="Path" stroke="#A9B5CC" stroke-linecap="round" stroke-linejoin="round" points="7.91242376 54.4669846 6.08339912 52.6494632 7.91242376 50.8204386"></polyline>
                            <path d="M52.5567296,108.762559 L56.7324274,106.645952 C56.9009241,106.584226 57.043075,106.466444 57.1350429,106.312356" id="Path" stroke="#FFFFFF" stroke-linecap="round"></path>
                            <path d="M57.8482475,107.669745 L58.1473332,105.449609 C57.6411881,105.449609 56.525368,105.311569 56.0192228,105.219543" id="Path" stroke="#FFFFFF" stroke-linecap="round"></path>
                        </g>
                        <g id="Group-4" transform="translate(0.000000, 77.336683)">
                            <path d="M1.24250083,4.24486203 C1.27407114,1.87779003 3.21204012,-0.019054948 5.57924479,0.000144470898 L130.309523,1.25400413 C132.674752,1.27929237 134.5734,3.21395784 134.55424,5.57924479 L133.323387,139.684712 C133.291834,142.053621 131.355727,143.953778 128.986643,143.940933 L4.24486203,142.687073 C1.87779003,142.655503 -0.019054948,140.717534 0.000144470898,138.350329 L1.15047443,13.9076337" id="Path" stroke="#A9B5CC" fill="#FFFFFF" fill-rule="nonzero" stroke-linecap="round"></path>
                            <path d="M15.2765264,51.8225093 C39.2839127,52.3746677 96.9499538,53.6285273 120.865314,53.5019911" id="Path" stroke="#E8ECF2" stroke-linecap="round"></path>
                            <path d="M14.1376997,76.7961728 C38.145086,77.3483312 96.9614571,78.6021908 120.85381,78.4756546" id="Path" stroke="#E8ECF2" stroke-linecap="round"></path>
                            <path d="M14.1261964,101.804346 C38.1335827,102.356505 96.9499538,103.610364 120.85381,103.495331" id="Path" stroke="#E8ECF2" stroke-linecap="round"></path>
                            <path d="M14.6553482,128.641544 C38.6627345,129.193703 95.9146568,129.262722 119.853023,129.147689" id="Path" stroke="#E8ECF2" stroke-linecap="round"></path>
                            <path d="M15.0809703,29.5406179 C14.5403152,53.4559779 14.2872426,103.564351 14.4022756,127.410691" id="Path" stroke="#E8ECF2" stroke-linecap="round"></path>
                            <path d="M121.256426,29.5981344 C120.704267,53.5019911 120.692764,104.197033 120.807797,128.043373" id="Path" stroke="#E8ECF2" stroke-linecap="round"></path>
                            <path d="M94.7298169,29.5751278 C94.1891618,53.4904878 94.3387047,104.680171 94.465241,128.503505" id="Path" stroke="#E8ECF2" stroke-linecap="round"></path>
                            <path d="M68.1686981,29.5636245 C67.6165397,53.4789845 67.282944,104.496118 67.397977,128.342458" id="Path" stroke="#E8ECF2" stroke-linecap="round"></path>
                            <path d="M41.6190825,29.5521212 C41.0784275,53.4674812 40.8253549,103.587358 40.9403879,127.422194" id="Path" stroke="#E8ECF2" stroke-linecap="round"></path>
                            <path d="M17.255728,12.2577194 L118.737837,12.2577194 C120.326112,12.2577194 121.613662,13.54527 121.613662,15.1335443 L121.613662,28.8224708 L14.3683766,28.8224708 L14.3683998,15.1450476 C14.3653268,14.3783426 14.6685396,13.6421525 15.2106863,13.1000059 C15.7528329,12.5578592 16.489023,12.2546464 17.255728,12.2577194 Z" id="Path" fill="#0AC5F6" fill-rule="nonzero" transform="translate(67.991019, 20.540084) rotate(0.330000) translate(-67.991019, -20.540084) "></path>
                            <path d="M99.1010708,115.493273 C98.3878662,118.944263 100.343427,123.200484 103.253762,124.44284 C104.84941,125.034947 106.604533,125.034947 108.200181,124.44284 C110.020371,123.912832 111.629237,122.826848 112.801501,121.336949 C114.172327,119.506987 114.692717,117.177082 114.230776,114.937766 C113.768834,112.69845 112.368904,110.764682 110.385808,109.62659 C108.555426,108.645733 106.443193,108.324836 104.404092,108.717829 C100.962426,109.256157 97.9772268,111.388442 96.3517822,114.469479" id="Path" stroke="#FF5347" stroke-width="0.75" stroke-linecap="round"></path>
                            <path d="M73.1266202,36.7416835 L87.4597316,43.747193" id="Path" stroke="#A4B5CD" stroke-linecap="round"></path>
                            <path d="M75.1742076,46.0363496 L86.0908389,35.6833799" id="Path" stroke="#A4B5CD" stroke-linecap="round"></path>
                            <path d="M44.1152986,63.4178353 C44.4096096,63.6111242 44.5698256,63.9538084 44.5294173,64.3035894 C44.7824899,64.5911719 45.2771318,64.4301257 45.5302044,64.1425432 C45.7276704,63.8197381 45.9590486,63.5189465 46.2204024,63.2452858 C47.2556994,62.4400549 48.5210623,64.0160069 49.8439418,64.1080333 C51.1668212,64.2000597 52.6392436,62.520578 53.8931032,63.1992726 C54.2612088,63.406332 54.5142814,63.7744376 54.8708837,64.0045036 C55.6078472,64.3074731 56.4345801,64.3074731 57.1715436,64.0045036 C58.4714165,63.6824112 60.1854081,63.6479013 60.8065863,64.8327412" id="Path" stroke="#A4B5CD" stroke-linecap="round"></path>
                            <path d="M45.1275889,69.77916 C44.9895493,69.2500082 45.6912506,68.8473928 46.2779189,68.9624258 C46.7879941,69.1590168 47.2773537,69.4056232 47.7388379,69.6986369 C48.8175052,69.9919903 49.9592694,69.9559346 51.0172783,69.5951072 C53.7383082,69.1035552 56.5418222,69.3620352 59.1271046,70.3428217" id="Path" stroke="#A4B5CD" stroke-linecap="round"></path>
                            <path d="M98.5604157,87.4022151 C99.5155356,86.9872617 100.561303,86.8248508 101.597287,86.9305798 C102.65559,87.1491425 103.552848,87.8968569 104.622655,88.0809097 C105.532388,88.0745133 106.435961,87.9310274 107.302923,87.6552877 C108.631775,87.3946392 110.007943,87.5306558 111.260058,88.0463998 C112.318362,88.4835252 116.183471,88.2189493 117.322297,88.2304526" id="Path" stroke="#A4B5CD" stroke-linecap="round"></path>
                            <path d="M98.6179322,92.6707263 C101.355718,93.9590959 104.553635,92.0725547 107.567499,92.314124 C108.924889,92.429157 110.213258,92.9698121 111.547641,93.1998781 C113.047378,93.3724026 114.563181,93.3492016 116.056934,93.1308583" id="Path" stroke="#A4B5CD" stroke-linecap="round"></path>
                            <path d="M35.8099162,110.765417 C34.0515611,110.168487 32.213561,109.838888 30.3573522,109.787636 C29.3450618,109.787636 28.3672814,109.971689 27.354991,109.994696 C24.7092321,109.994696 22.0059567,109.085935 19.4752307,109.511557" id="Path" stroke="#00C5F7" stroke-linecap="round"></path>
                            <path d="M34.6365797,114.918108 C32.23239,113.951831 28.8849298,114.918108 26.5842699,113.894314" id="Path" stroke="#00C5F7" stroke-linecap="round"></path>
                            <path d="M22.9607305,113.940327 L20.4530112,113.756275" id="Path" stroke="#00C5F7" stroke-linecap="round"></path>
                            <path d="M34.6020698,119.657467 C31.4948501,119.778048 28.3831559,119.608599 25.3074037,119.151322 C24.3526298,118.978773 23.4208625,118.76021 22.4660886,118.62217 C21.4872627,118.445055 20.4812694,118.488281 19.5212439,118.748707 C19.4292175,118.748707 19.3141846,118.748707 19.3486944,118.62217 C19.3832043,118.495634 19.5672571,118.62217 19.5097406,118.62217" id="Path" stroke="#00C5F7" stroke-linecap="round"></path>
                        </g>
                        <g id="Group-5" transform="translate(164.221106, -0.000000)">
                            <path d="M0.29908579,4.71641037 C0.318081922,2.09707073 2.45357767,-0.0126961496 5.07295514,5.75188987e-05 L143.227584,0.943328089 C145.848772,0.968623578 147.956722,3.10742155 147.943937,5.72870073 L147.656354,88.7480142 C147.631059,91.3692025 145.492261,93.4771524 142.870981,93.464367 L4.71635285,92.5210964 C2.1086345,92.4959072 0.00617747597,90.3780664 1.84741111e-13,87.7702337 L0.218562693,15.414479" id="Path" stroke="#06D2B5" fill="#FFFFFF" fill-rule="nonzero" stroke-linecap="round"></path>
                            <path d="M56.664064,11.3706072 L130.802845,11.3706072 C132.260876,11.3706072 133.442845,12.5525755 133.442845,14.0106072 L133.442845,79.8900187 C133.442845,81.3480505 132.260876,82.5300187 130.802845,82.5300187 L56.664064,82.5300187 C55.2060322,82.5300187 54.024064,81.3480505 54.024064,79.8900187 L54.024064,14.0106072 C54.024064,12.5525755 55.2060322,11.3706072 56.664064,11.3706072 Z" id="Rectangle" fill="#E6ECF2" fill-rule="nonzero" transform="translate(93.733454, 46.950313) rotate(0.390000) translate(-93.733454, -46.950313) "></path>
                            <path d="M86.7233759,27.3088908 C96.1637505,27.5236191 105.611794,27.5926389 115.067506,27.5159502" id="Path" stroke="#FFFFFF" stroke-linecap="round" stroke-linejoin="round"></path>
                            <path d="M89.4496579,34.3489102 L105.255192,34.0268178" id="Path" stroke="#FFFFFF" stroke-linecap="round" stroke-linejoin="round"></path>
                            <path d="M88.75946,54.9053067 L110.983835,55.4229551" id="Path" stroke="#FFFFFF" stroke-linecap="round" stroke-linejoin="round"></path>
                            <path d="M89.2771084,59.5756463 L118.449476,60.3463674" id="Path" stroke="#FFFFFF" stroke-linecap="round" stroke-linejoin="round"></path>
                            <path d="M88.414361,65.1662499 C93.7714964,65.5932293 99.1496853,65.69311 104.51898,65.4653357" id="Path" stroke="#FFFFFF" stroke-linecap="round" stroke-linejoin="round"></path>
                            <path d="M15.8646658,11.0984041 L91.6254117,11.0984041 C93.0834434,11.0984041 94.2654117,12.2803724 94.2654117,13.7384041 L94.2654117,79.6178156 C94.2654117,81.0758474 93.0834434,82.2578156 91.6254117,82.2578156 L15.8646658,82.2578156 C14.4066341,82.2578156 13.2246658,81.0758474 13.2246658,79.6178156 L13.2246658,13.7384041 C13.2246658,12.2803724 14.4066341,11.0984041 15.8646658,11.0984041 Z" id="Rectangle" fill="#06D2B5" fill-rule="nonzero" transform="translate(53.745039, 46.678110) rotate(0.390000) translate(-53.745039, -46.678110) "></path>
                            <path d="M28.6536805,24.0769116 L39.0066695,24.0769116 C40.9507119,24.0769116 42.5266695,25.6528693 42.5266695,27.5969116 L42.5266695,37.9499007 C42.5266695,39.893943 40.9507119,41.4699007 39.0066695,41.4699007 L28.6536805,41.4699007 C26.7096382,41.4699007 25.1336805,39.893943 25.1336805,37.9499007 L25.1336805,27.5969116 C25.1336805,25.6528693 26.7096382,24.0769116 28.6536805,24.0769116 Z" id="Rectangle" fill="#FFFFFF" fill-rule="nonzero" transform="translate(33.830175, 32.773406) rotate(0.390000) translate(-33.830175, -32.773406) "></path>
                            <path d="M31.288975,40.3421293 C28.4689925,40.3105423 26.2031965,38.0087813 26.2160199,35.1886511 L26.2160199,28.0335987 C26.2413237,25.2091107 28.5449256,22.9363606 31.3694981,22.9491403 L38.5245505,22.9491403 C41.3490385,22.9744441 43.6217886,25.2780461 43.6090089,28.1026185 L43.6090089,35.2576709 C43.5774502,38.0795063 41.2775351,40.348619 38.4555307,40.3421293" id="Path" stroke="#1D1F24" stroke-linecap="round"></path>
                            <path d="M28.4720291,50.7626957 L38.8250181,50.7626957 C40.7690604,50.7626957 42.3450181,52.3386534 42.3450181,54.2826957 L42.3450181,64.6356848 C42.3450181,66.5797271 40.7690604,68.1556848 38.8250181,68.1556848 L28.4720291,68.1556848 C26.5279867,68.1556848 24.9520291,66.5797271 24.9520291,64.6356848 L24.9520291,54.2826957 C24.9520291,52.3386534 26.5279867,50.7626957 28.4720291,50.7626957 Z" id="Rectangle" fill="#FFFFFF" fill-rule="nonzero" transform="translate(33.648524, 59.459190) rotate(0.390000) translate(-33.648524, -59.459190) "></path>
                            <path d="M26.0779803,54.7212539 C26.1032841,51.8967658 28.406886,49.6240157 31.2314585,49.6367954 L38.3865109,49.6367954 C41.2083463,49.6683541 43.477459,51.9682693 43.4709693,54.7902737 L43.4709693,61.9568293 C43.4649555,63.3255654 42.9122587,64.6351519 41.9358042,65.5943241 C40.9593497,66.5534962 39.6401031,67.0827212 38.2714779,67.0642944 L31.1164255,67.0642944 C28.2919375,67.0389905 26.0191873,64.7353886 26.0319671,61.9108161 L26.0319671,59.5181298" id="Path" stroke="#1D1F24" stroke-linecap="round"></path>
                            <path d="M48.7394805,26.5496731 L76.24387,26.7337259" id="Path" stroke="#FFFFFF" stroke-linecap="round" stroke-linejoin="round"></path>
                            <path d="M48.0722892,31.9562239 C51.8223648,31.8872041 55.1583217,32.0597536 58.9083974,31.9562239" id="Path" stroke="#FFFFFF" stroke-linecap="round" stroke-linejoin="round"></path>
                            <path d="M65.5688079,32.5543955 L80.1549918,32.6464219" id="Path" stroke="#FFFFFF" stroke-linecap="round" stroke-linejoin="round"></path>
                            <path d="M48.451898,37.7423836 C54.4336139,37.5928407 59.5640855,37.8574166 65.534298,37.7423836" id="Path" stroke="#FFFFFF" stroke-linecap="round" stroke-linejoin="round"></path>
                            <path d="M48.5554277,52.1100048 L68.3871163,52.2480444" id="Path" stroke="#FFFFFF" stroke-linecap="round" stroke-linejoin="round"></path>
                            <path d="M47.8997397,57.5395623 C51.6498153,57.4705425 56.1706121,57.5395623 56.1706121,57.5395623" id="Path" stroke="#FFFFFF" stroke-linecap="round" stroke-linejoin="round"></path>
                            <path d="M61.542653,58.0457075 L79.9479324,58.1722438" id="Path" stroke="#FFFFFF" stroke-linecap="round" stroke-linejoin="round"></path>
                            <path d="M48.2793485,63.325722 C54.2495611,63.1761791 79.1081916,63.8663771 79.1081916,63.8663771" id="Path" stroke="#FFFFFF" stroke-linecap="round" stroke-linejoin="round"></path>
                            <path d="M29.4484471,29.540531 C29.4484471,29.540531 32.5313314,33.3711297 34.8319913,34.4409366 C37.9210327,31.7021648 40.8297657,28.7665346 43.5399891,25.6524157" id="Path" stroke="#06D2B5" stroke-linecap="round" stroke-linejoin="round"></path>
                            <path d="M29.2643943,56.4007356 C29.2643943,56.4007356 32.3472786,60.2313344 34.6479385,61.3011413 C37.741682,58.5468557 40.6506449,55.5917798 43.3559363,52.4551038" id="Path" stroke="#06D2B5" stroke-linecap="round" stroke-linejoin="round"></path>
                        </g>
                        <g id="Group-10" transform="translate(182.361809, 105.979899)">
                            <path d="M274.399709,1.23085306 L7.60368106,-1.70530257e-13 C3.95202411,-0.000196072591 0.981111569,2.93992981 0.94327057,6.59139069 L0.276079191,117.27614 L0.115032996,130.309378 L-8.52651283e-14,176.50663 C-0.00013656045,180.156375 2.94178203,183.123965 6.59139069,183.155537 L281.681298,184.45541 C285.333626,184.461827 288.304891,181.516264 288.330205,177.864019 L289.250469,7.96028334 C289.250665,4.3086264 286.310539,1.33771386 282.659079,1.29987286" id="Path" stroke="#1D1F24" fill="#FFFFFF" fill-rule="nonzero" stroke-linecap="round" stroke-linejoin="round"></path>
                            <path d="M266.20936,169.39759 L25.0196767,170.018769 C19.3255434,170.018769 14.78174,165.118363 14.7587334,159.044621 L15.6099776,26.6416419 C15.6099776,20.8899921 19.9927348,16.0010898 25.3302658,15.7940304 L25.8709209,15.7940304 L267.233154,15.2073621 C270.044621,15.3002823 272.70342,16.5086867 274.622245,18.5656495 C276.541069,20.6226124 277.562023,23.3588696 277.459587,26.1700067 L276.516317,158.457952 C276.687975,164.070829 272.477283,168.85502 266.888055,169.39759 L266.20936,169.39759 Z" id="Path" stroke="#FFFFFF" fill="#E8ECF2" fill-rule="nonzero"></path>
                            <polygon id="Path" stroke="#FFFFFF" fill="#FFFFFF" fill-rule="nonzero" stroke-linecap="round" stroke-linejoin="round" points="149.163286 158.929588 67.6278985 159.228673 68.8932615 41.883514 149.876491 42.0215536"></polygon>
                            <polygon id="Path" stroke="#FFFFFF" fill="#FFFFFF" fill-rule="nonzero" stroke-linecap="round" stroke-linejoin="round" points="268.176424 160.010898 155.674154 159.884362 156.755464 41.9870437 269.303748 41.0322698"></polygon>
                            <path d="M79.3037477,28.9653085 C79.3364143,26.0759949 77.0499438,23.6923367 74.1617727,23.6047708 C71.4408523,23.650007 69.221779,25.7986335 69.0888176,28.5166798 C69.0888176,28.6432161 69.0888176,28.7812557 69.0888176,28.907792 C69.0560035,31.7927696 71.3356466,34.1746388 74.2192892,34.2683296 C76.9451289,34.2408411 79.1758202,32.0908989 79.3037477,29.367924 C79.3037477,29.2298844 79.3037477,29.1033481 79.3037477,28.9653085 Z" id="Path" fill="#06D2B5" fill-rule="nonzero"></path>
                            <path d="M86.7348792,28.8962887 L95.8915057,28.9307986" id="Path" stroke="#FFFFFF" stroke-width="2" stroke-linecap="round" stroke-linejoin="round"></path>
                            <path d="M24.6975843,28.5972029 L36.5459829,28.6662227" id="Path" stroke="#FFFFFF" stroke-width="2" stroke-linecap="round" stroke-linejoin="round"></path>
                            <path d="M102.195314,28.9768118 L111.340437,29.022825" id="Path" stroke="#FFFFFF" stroke-width="2" stroke-linecap="round" stroke-linejoin="round"></path>
                            <path d="M117.655749,29.0458316 L126.777865,29.1033481" id="Path" stroke="#FFFFFF" stroke-width="2" stroke-linecap="round" stroke-linejoin="round"></path>
                            <path d="M133.07017,29.137858 L142.180783,29.1953745" id="Path" stroke="#FFFFFF" stroke-width="2" stroke-linecap="round" stroke-linejoin="round"></path>
                            <path d="M34.0727735,54.6406732 L59.6100987,54.6061633" id="Path" stroke="#1D1F24" stroke-linecap="round"></path>
                            <path d="M34.1072834,63.8548162 L59.5410789,63.7742932" id="Path" stroke="#1D1F24" stroke-linecap="round"></path>
                            <path d="M34.1187867,73.0229461 L59.4605558,72.8964098" id="Path" stroke="#1D1F24" stroke-linecap="round"></path>
                            <path d="M34.1417933,82.1335594 L59.4030393,81.9725132" id="Path" stroke="#1D1F24" stroke-linecap="round"></path>
                            <path d="M34.1647999,91.2096628 L59.3340195,91.0026034" id="Path" stroke="#1D1F24" stroke-linecap="round"></path>
                            <path d="M76.2898832,54.6061633 L143.676212,54.939759" id="Path" stroke="#E8ECF2" stroke-linecap="round"></path>
                            <path d="M76.3128897,68.4561361 L143.296603,68.605679" id="Path" stroke="#E8ECF2" stroke-linecap="round"></path>
                            <path d="M76.3358963,82.156566 L142.928498,82.1450627" id="Path" stroke="#E8ECF2" stroke-linecap="round"></path>
                            <path d="M76.3473996,95.7189562 L142.548889,95.55791" id="Path" stroke="#E8ECF2" stroke-linecap="round"></path>
                            <path d="M76.3704062,109.166313 L142.180783,108.832718" id="Path" stroke="#E8ECF2" stroke-linecap="round"></path>
                            <path d="M28.2751105,54.5141369 C28.2751105,52.7670353 26.8588048,51.3507296 25.1117031,51.3507296 C23.4323072,51.4134297 22.0766499,52.7441668 21.9828056,54.4221106 C21.9770695,54.5102092 21.9770695,54.5985877 21.9828056,54.6866864 C21.9764565,55.5275157 22.3100455,56.3352532 22.9078586,56.9265683 C23.5056717,57.5178835 24.3170066,57.8426251 25.1577163,57.8270872 C26.8348268,57.759093 28.1875187,56.4312668 28.2866138,54.7557062 L28.2751105,54.5141369 Z" id="Path" fill="#7974FD" fill-rule="nonzero"></path>
                            <path d="M28.4246534,63.6592602 C28.4310007,62.8123298 28.0949874,61.998742 27.4928603,61.4031127 C26.8907333,60.8074834 26.0735477,60.480317 25.2267361,60.4958528 C23.5641788,60.5580031 22.2203359,61.8719827 22.1208452,63.5327239 L22.1208452,63.7972998 C22.111626,64.6300472 22.4359904,65.4318631 23.0216174,66.0239731 C23.6072445,66.6160831 24.4054409,66.9492549 25.2382394,66.9492039 C26.917062,66.9176852 28.2943595,65.6102506 28.4131501,63.9353393 C28.4131501,63.843313 28.4246534,63.7512866 28.4246534,63.6592602 Z" id="Path" fill="#F9FAFC" fill-rule="nonzero"></path>
                            <path d="M28.3441303,72.9539263 C28.3536933,72.1121247 28.0211286,71.3025006 27.4226026,70.7104803 C26.8240766,70.11846 26.0108664,69.7947632 25.1692196,69.8135255 C23.5088541,69.8761527 22.1685968,71.1914981 22.074832,72.8503966 C22.074832,72.9309197 22.074832,73.0229461 22.074832,73.1149725 C22.0684829,73.9558017 22.4020719,74.7635392 22.999885,75.3548543 C23.5976981,75.9461695 24.409033,76.2709111 25.2497427,76.2553733 C26.9123,76.1932229 28.2561428,74.8792433 28.3556336,73.2185021 L28.3441303,72.9539263 Z" id="Path" fill="#7974FD" fill-rule="nonzero"></path>
                            <path d="M28.5166798,81.9034934 C28.5260169,81.0616779 28.1957294,80.2516164 27.6004394,79.6563264 C27.0051493,79.0610363 26.1950879,78.7307489 25.3532724,78.740086 C23.6678403,78.8090807 22.3120572,80.1499103 22.2243749,81.8344736 L22.2243749,82.0185264 C22.2212798,82.8635076 22.5563674,83.6746071 23.1549429,84.2710216 C23.7535183,84.8674361 24.5658244,85.1995881 25.4107889,85.1934371 C27.0692848,85.1366334 28.4109823,83.8248622 28.5051765,82.1680693 C28.5147483,82.0802204 28.5185909,81.9918415 28.5166798,81.9034934 L28.5166798,81.9034934 Z" id="Path" fill="#FC5449" fill-rule="nonzero"></path>
                            <path d="M28.4936732,90.9795968 C28.4968523,90.1427854 28.1634651,89.3398319 27.5685095,88.7513667 C26.9735539,88.1629016 26.166992,87.8383417 25.3302658,87.8506993 C23.6586548,87.8962633 22.3021557,89.2177237 22.2128716,90.8875704 C22.2071406,90.964152 22.2071406,91.0410548 22.2128716,91.1176364 C22.2127813,91.9585564 22.5499528,92.7643827 23.1488818,93.3546628 C23.7478107,93.944943 24.5584558,94.2703584 25.3992856,94.2580372 C27.0580967,94.2075392 28.4048236,92.9007154 28.5051765,91.2441727 L28.4936732,90.9795968 Z" id="Path" fill="#FDB102" fill-rule="nonzero"></path>
                            <polygon id="Path" stroke="#06D2B5" stroke-linecap="round" points="215.606345 108.085003 203.930496 96.5817037 189.551371 96.5817037 208.244233 115.274566"></polygon>
                            <polyline id="Path" stroke="#06D2B5" stroke-linecap="round" points="209.302537 99.8486408 225.31513 83.8360477 239.625235 83.8360477 215.606345 108.085003"></polyline>
                        </g>
                    </g>
                </g>
            </g>
        </g>
    </g>
</svg>